<svg width="158" height="158" viewBox="0 0 158 158" fill="none" xmlns="http://www.w3.org/2000/svg">
<g filter="url(#filter0_i_112_493)">
<path fill-rule="evenodd" clip-rule="evenodd" d="M150.678 42.6777C160.441 32.9146 160.441 17.0854 150.678 7.32233C140.915 -2.44078 125.085 -2.44078 115.322 7.32233L79 43.6447L42.6777 7.32233C32.9146 -2.44078 17.0854 -2.44078 7.32233 7.32233C-2.44078 17.0854 -2.44078 32.9146 7.32233 42.6777L43.6447 79L7.32233 115.322C-2.44078 125.085 -2.44078 140.915 7.32233 150.678C17.0854 160.441 32.9146 160.441 42.6777 150.678L79 114.355L115.322 150.678C125.085 160.441 140.915 160.441 150.678 150.678C160.441 140.915 160.441 125.085 150.678 115.322L114.355 79L150.678 42.6777Z" fill="#ED2020"/>
</g>
<defs>
<filter id="filter0_i_112_493" x="0" y="0" width="158" height="162" filterUnits="userSpaceOnUse" color-interpolation-filters="sRGB">
<feFlood flood-opacity="0" result="BackgroundImageFix"/>
<feBlend mode="normal" in="SourceGraphic" in2="BackgroundImageFix" result="shape"/>
<feColorMatrix in="SourceAlpha" type="matrix" values="0 0 0 0 0 0 0 0 0 0 0 0 0 0 0 0 0 0 127 0" result="hardAlpha"/>
<feOffset dy="4"/>
<feGaussianBlur stdDeviation="2"/>
<feComposite in2="hardAlpha" operator="arithmetic" k2="-1" k3="1"/>
<feColorMatrix type="matrix" values="0 0 0 0 0 0 0 0 0 0 0 0 0 0 0 0 0 0 0.25 0"/>
<feBlend mode="normal" in2="shape" result="effect1_innerShadow_112_493"/>
</filter>
</defs>
</svg>
